<svg xmlns="http://www.w3.org/2000/svg" width="241" height="160" viewBox="0 0 241 160">
    <g fill="none" fill-rule="evenodd">
        <g>
            <g>
                <g>
                    <path fill="#FFECE8" d="M4 90h24c2.21 0 4 1.79 4 4v36H0V94c0-2.21 1.79-4 4-4zM56 90h24c2.21 0 4 1.79 4 4v36H52V94c0-2.21 1.79-4 4-4zM108 0h24c2.21 0 4 1.79 4 4v126h-32V4c0-2.21 1.79-4 4-4z" transform="translate(-59.000000, -689.000000) translate(24.000000, 557.000000) translate(36.000000, 132.000000)"/>
                    <path fill="#FA4123" d="M104 30H136V130H104z" transform="translate(-59.000000, -689.000000) translate(24.000000, 557.000000) translate(36.000000, 132.000000)"/>
                    <path fill="#FFECE8" d="M160 0h24c2.21 0 4 1.79 4 4v126h-32V4c0-2.21 1.79-4 4-4z" transform="translate(-59.000000, -689.000000) translate(24.000000, 557.000000) translate(36.000000, 132.000000)"/>
                    <path fill="#FA4123" d="M156 25H188V130H156z" transform="translate(-59.000000, -689.000000) translate(24.000000, 557.000000) translate(36.000000, 132.000000)"/>
                    <path fill="#FFECE8" d="M212 0h24c2.21 0 4 1.79 4 4v126h-32V4c0-2.21 1.79-4 4-4z" transform="translate(-59.000000, -689.000000) translate(24.000000, 557.000000) translate(36.000000, 132.000000)"/>
                    <path fill="#FA4123" d="M208 20H240V130H208z" transform="translate(-59.000000, -689.000000) translate(24.000000, 557.000000) translate(36.000000, 132.000000)"/>
                    <text fill="#FA4123" font-family="SpoqaHanSansNeo-Medium, Spoqa Han Sans Neo" font-size="12" font-weight="400" letter-spacing="-.5" transform="translate(-59.000000, -689.000000) translate(24.000000, 557.000000) translate(36.000000, 132.000000)">
                        <tspan x="5" y="115">이자</tspan>
                    </text>
                    <text fill="#FFF" font-family="SpoqaHanSansNeo-Medium, Spoqa Han Sans Neo" font-size="12" font-weight="400" letter-spacing="-.5" transform="translate(-59.000000, -689.000000) translate(24.000000, 557.000000) translate(36.000000, 132.000000)">
                        <tspan x="109" y="81">원금</tspan>
                    </text>
                    <text fill="#222" font-family="SpoqaHanSansNeo-Regular, Spoqa Han Sans Neo" font-size="12" letter-spacing="-.5" transform="translate(-59.000000, -689.000000) translate(24.000000, 557.000000) translate(36.000000, 132.000000)">
                        <tspan x="20" y="156">거치기간</tspan>
                    </text>
                    <text fill="#222" font-family="SpoqaHanSansNeo-Regular, Spoqa Han Sans Neo" font-size="12" letter-spacing="-.5" transform="translate(-59.000000, -689.000000) translate(24.000000, 557.000000) translate(36.000000, 132.000000)">
                        <tspan x="151" y="156">잔여기간</tspan>
                    </text>
                    <g stroke="#979797">
                        <path stroke-linecap="square" d="M1 3.5L13 3.5" transform="translate(-59.000000, -689.000000) translate(24.000000, 557.000000) translate(36.000000, 132.000000) translate(0.000000, 147.000000)"/>
                        <path d="M3.561 0L0 3.561 3.561 7.122" transform="translate(-59.000000, -689.000000) translate(24.000000, 557.000000) translate(36.000000, 132.000000) translate(0.000000, 147.000000)"/>
                    </g>
                    <g stroke="#979797">
                        <path stroke-linecap="square" d="M1 3.5L13 3.5" transform="translate(-59.000000, -689.000000) translate(24.000000, 557.000000) translate(36.000000, 132.000000) translate(76.500000, 150.560837) scale(-1, 1) translate(-76.500000, -150.560837) translate(70.000000, 147.000000)"/>
                        <path d="M3.561 0L0 3.561 3.561 7.122" transform="translate(-59.000000, -689.000000) translate(24.000000, 557.000000) translate(36.000000, 132.000000) translate(76.500000, 150.560837) scale(-1, 1) translate(-76.500000, -150.560837) translate(70.000000, 147.000000)"/>
                    </g>
                    <g stroke="#979797">
                        <path stroke-linecap="square" d="M1 3.5L39 3.5" transform="translate(-59.000000, -689.000000) translate(24.000000, 557.000000) translate(36.000000, 132.000000) translate(105.000000, 147.000000)"/>
                        <path d="M3.561 0L0 3.561 3.561 7.122" transform="translate(-59.000000, -689.000000) translate(24.000000, 557.000000) translate(36.000000, 132.000000) translate(105.000000, 147.000000)"/>
                    </g>
                    <g stroke="#979797">
                        <path stroke-linecap="square" d="M1 3.5L39 3.5" transform="translate(-59.000000, -689.000000) translate(24.000000, 557.000000) translate(36.000000, 132.000000) translate(219.500000, 150.560837) scale(-1, 1) translate(-219.500000, -150.560837) translate(200.000000, 147.000000)"/>
                        <path d="M3.561 0L0 3.561 3.561 7.122" transform="translate(-59.000000, -689.000000) translate(24.000000, 557.000000) translate(36.000000, 132.000000) translate(219.500000, 150.560837) scale(-1, 1) translate(-219.500000, -150.560837) translate(200.000000, 147.000000)"/>
                    </g>
                </g>
            </g>
        </g>
    </g>
</svg>
