<svg xmlns="http://www.w3.org/2000/svg" width="48" height="48" viewBox="0 0 48 48">
    <g fill="none" fill-rule="evenodd">
        <g>
            <g>
                <g>
                    <g>
                        <path d="M0 0H48V48H0z" opacity=".5" transform="translate(-1236 -1467) translate(915 942) translate(21 519) translate(300 6)"/>
                        <g>
                            <path d="M4 4H28V28H4z" transform="translate(-1236 -1467) translate(915 942) translate(21 519) translate(300 6) translate(8 8)"/>
                            <path fill="#222" d="M16 5.25c.414 0 .75.336.75.75v9.5h9.5c.414 0 .75.336.75.75s-.336.75-.75.75h-9.501l.001 9.5c0 .414-.336.75-.75.75s-.75-.336-.75-.75l-.001-9.5H5.75c-.414 0-.75-.336-.75-.75s.336-.75.75-.75h9.5V6c0-.414.336-.75.75-.75z" transform="translate(-1236 -1467) translate(915 942) translate(21 519) translate(300 6) translate(8 8) rotate(45 16 16.25)"/>
                        </g>
                    </g>
                </g>
            </g>
        </g>
    </g>
</svg>
