<svg xmlns="http://www.w3.org/2000/svg" width="24" height="24" viewBox="0 0 24 24">
    <g fill="none" fill-rule="evenodd" opacity=".4">
        <g>
            <g>
                <g>
                    <g>
                        <g>
                            <g>
                                <path d="M0 0H24V24H0z" transform="translate(-1460 -4036) translate(454 3666) translate(1 124) translate(733 200) translate(0 30) translate(272 16)"/>
                                <g fill="#222" fill-rule="nonzero">
                                    <path d="M15.68 1.406h-1.617V.563C14.063.252 13.81 0 13.5 0c-.31 0-.563.252-.563.563v.843H5.064V.563C5.063.252 4.81 0 4.5 0c-.31 0-.563.252-.563.563v.843H2.32C1.04 1.406 0 2.447 0 3.726V15.68C0 16.96 1.04 18 2.32 18h13.36c1.28 0 2.32-1.04 2.32-2.32V3.727c0-1.28-1.04-2.32-2.32-2.32zM2.32 2.531h1.618v.563c0 .31.251.562.562.562.31 0 .563-.252.563-.562V2.53h7.875v.563c0 .31.251.562.562.562.31 0 .563-.252.563-.562V2.53h1.617c.659 0 1.195.536 1.195 1.196v1.336H1.125V3.726c0-.66.536-1.196 1.195-1.196zm13.36 14.344H2.32c-.659 0-1.195-.536-1.195-1.195V6.188h15.75v9.492c0 .659-.536 1.195-1.195 1.195z" transform="translate(-1460 -4036) translate(454 3666) translate(1 124) translate(733 200) translate(0 30) translate(272 16) translate(3 3)"/>
                                </g>
                            </g>
                        </g>
                    </g>
                </g>
            </g>
        </g>
    </g>
</svg>
