<svg xmlns="http://www.w3.org/2000/svg" width="24" height="25" viewBox="0 0 24 25">
    <g fill="none" fill-rule="evenodd">
        <g>
            <g>
                <g>
                    <g>
                        <path fill="#FFF" fill-rule="nonzero" stroke="#EBEBEB" d="M12 1.5c2.9 0 5.524 1.175 7.425 3.075 1.9 1.9 3.075 4.526 3.075 7.425 0 2.9-1.175 5.524-3.075 7.425-1.9 1.9-4.526 3.075-7.425 3.075-2.9 0-5.524-1.175-7.425-3.075C2.675 17.525 1.5 14.899 1.5 12c0-2.9 1.175-5.524 3.075-7.425C6.475 2.675 9.101 1.5 12 1.5z" transform="translate(-537 -1176) translate(452 1040) translate(85 119.5) translate(0 17)"/>
                        <path stroke="#BBB" stroke-linecap="round" stroke-linejoin="round" stroke-width="1.5" d="M7.55 12l3.3 3.429m0 0l6.6-6.858" transform="translate(-537 -1176) translate(452 1040) translate(85 119.5) translate(0 17)"/>
                    </g>
                </g>
            </g>
        </g>
    </g>
</svg>
