<svg xmlns="http://www.w3.org/2000/svg" width="48" height="48" viewBox="0 0 48 48">
    <g fill="none" fill-rule="evenodd">
        <g>
            <g>
                <g>
                    <path d="M0 0H48V48H0z" opacity=".5" transform="translate(-300.000000, -28.000000) translate(0.000000, 24.000000) translate(300.000000, 4.000000)"/>
                    <g>
                        <path d="M3.556 3.306H27.556V27.306H3.556z" transform="translate(-300.000000, -28.000000) translate(0.000000, 24.000000) translate(300.000000, 4.000000) translate(8.443651, 8.693651)"/>
                        <path fill="#222" d="M15.556 4.556c.415 0 .75.336.75.75v9.5h9.5c.415 0 .75.336.75.75 0 .415-.335.75-.75.75h-9.5v9.5c0 .415-.335.75-.75.75-.414 0-.75-.335-.75-.75v-9.5h-9.5c-.414 0-.75-.335-.75-.75 0-.414.336-.75.75-.75h9.5v-9.5c0-.414.336-.75.75-.75z" transform="translate(-300.000000, -28.000000) translate(0.000000, 24.000000) translate(300.000000, 4.000000) translate(8.443651, 8.693651) translate(15.556349, 15.556349) rotate(-315.000000) translate(-15.556349, -15.556349)"/>
                    </g>
                </g>
            </g>
        </g>
    </g>
</svg>
