<svg xmlns="http://www.w3.org/2000/svg" width="24" height="24" viewBox="0 0 24 24">
    <g fill="none" fill-rule="evenodd">
        <g>
            <g transform="translate(-830.000000, -876.000000) translate(830.000000, 876.000000)">
                <path d="M0 0H24V24H0z"/>
                <circle cx="12" cy="12" r="6.5" stroke="#00648C"/>
                <path fill="#00648C" d="M8.123 12.306l1.931 2.26c.493.578 1.293.578 1.787 0l4.036-4.724c.164-.193.164-.505 0-.698-.165-.192-.431-.192-.596 0l-4.036 4.726c-.164.192-.43.192-.595 0l-1.931-2.26c-.165-.193-.431-.193-.596 0-.164.192-.164.504 0 .696z"/>
            </g>
        </g>
    </g>
</svg>
