<svg xmlns="http://www.w3.org/2000/svg" width="48" height="48" viewBox="0 0 48 48">
    <g fill="none" fill-rule="evenodd">
        <g>
            <g>
                <g>
                    <path d="M0 0H48V48H0z" opacity=".5" transform="translate(-872.000000, -856.000000) translate(572.000000, 852.000000) translate(300.000000, 4.000000)"/>
                    <g>
                        <path d="M0 0H24V24H0z" transform="translate(-872.000000, -856.000000) translate(572.000000, 852.000000) translate(300.000000, 4.000000) translate(12.000000, 12.000000)"/>
                        <path fill="#222" d="M22.25 19c.414 0 .75.336.75.75s-.336.75-.75.75H1.75c-.414 0-.75-.336-.75-.75s.336-.75.75-.75h20.5zm0-7.5c.414 0 .75.336.75.75s-.336.75-.75.75H1.75c-.414 0-.75-.336-.75-.75s.336-.75.75-.75h20.5zm0-7.5c.414 0 .75.336.75.75s-.336.75-.75.75H1.75c-.414 0-.75-.336-.75-.75S1.336 4 1.75 4h20.5z" transform="translate(-872.000000, -856.000000) translate(572.000000, 852.000000) translate(300.000000, 4.000000) translate(12.000000, 12.000000)"/>
                    </g>
                </g>
            </g>
        </g>
    </g>
</svg>
