<svg xmlns="http://www.w3.org/2000/svg" width="72" height="48" viewBox="0 0 72 48">
    <g fill="none" fill-rule="evenodd">
        <g>
            <g>
                <g>
                    <path d="M0 0H72V48H0z" transform="translate(-586.000000, -856.000000) translate(572.000000, 852.000000) translate(14.000000, 4.000000)"/>
                    <g fill="#FA4123">
                        <path d="M.825 15.434c1.19.38 3.223.932 4.665.932 1.64 0 3.466-.48 3.466-1.746 0-1.34-1.9-1.944-3.64-2.829C2.257 10.273.665 8.603.665 6.224.345 1.021 7.507-.005 11.855 1.746l-.657 2.93c-1.602-.663-6.549-1.528-6.625.966.627 3.339 8.462 3.518 8.238 8.452.169 5.75-8.296 6.455-12.81 4.375l.825-3.035zM20.43 8.704c1.09 0 1.8.77 1.837 2.236l-4.223 1.079c0-1.759.666-3.315 2.386-3.315zm5.604 3.596c.914-8.602-12.209-8.053-11.818.857-.003 6.384 6.765 7.793 11.087 4.981l.398-2.644c-2.06 1.076-7.038 2.4-7.546-1.181h-.002l7.881-2.013zM28.057 15.823c-.183 3.7 3.508 4.333 6.008 3.211v-2.356c-1.21.465-2.35-.51-2.253-1.634V1.726l-3.755.959v13.138zM40.13 16.785c-1.106 0-1.558-.921-1.558-1.739V0l-3.755.959v14.864c-.183 3.699 3.508 4.333 6.008 3.211V16.68c-.229.064-.462.105-.696.105M49.064 6.857L46.326 15.158 43.783 8.206 40.15 9.134 44.573 19.372 42.194 26 46.129 24.995 53 5.852z" transform="translate(-586.000000, -856.000000) translate(572.000000, 852.000000) translate(14.000000, 4.000000) translate(10.000000, 13.000000)"/>
                    </g>
                </g>
            </g>
        </g>
    </g>
</svg>
