<svg width="100" height="48" xmlns="http://www.w3.org/2000/svg">
    <g fill="none" fill-rule="evenodd">
        <path d="M0 0h100v48H0z"/>
        <g fill="#FA4123">
            <path d="M10.825 28.434c1.19.38 3.223.932 4.665.932 1.64 0 3.466-.48 3.466-1.746 0-1.34-1.9-1.944-3.64-2.829-3.058-1.518-4.65-3.188-4.65-5.567-.322-5.203 6.84-6.229 11.188-4.478l-.657 2.93c-1.602-.663-6.549-1.528-6.625.966.627 3.339 8.462 3.518 8.238 8.452.169 5.75-8.296 6.455-12.81 4.375l.825-3.035zM30.43 21.704c1.09 0 1.8.77 1.837 2.236l-4.223 1.079c0-1.759.666-3.315 2.386-3.315zm5.604 3.596c.914-8.602-12.209-8.053-11.818.857-.003 6.384 6.765 7.793 11.087 4.981l.398-2.644c-2.06 1.076-7.038 2.4-7.546-1.181h-.002l7.881-2.013zM38.057 28.823c-.183 3.7 3.508 4.333 6.008 3.211v-2.356c-1.21.465-2.35-.51-2.253-1.634V14.726l-3.755.959v13.138zM50.13 29.785c-1.106 0-1.558-.921-1.558-1.739V13l-3.755.959v14.864c-.183 3.699 3.508 4.333 6.008 3.211V29.68c-.229.064-.462.105-.696.105M59.064 19.857l-2.738 8.3-2.543-6.951-3.633.928 4.423 10.238L52.193 39l3.936-1.005L63 18.852z"/>
        </g>
        <g transform="translate(65 17)">
            <rect fill="#FA4123" width="30" height="14" rx="7"/>
            <text font-family="SpoqaHanSansNeo-Bold, Spoqa Han Sans Neo" font-size="10" font-weight="bold" letter-spacing="-.455" fill="#FFF">
                            <tspan x="4" y="12">Beta</tspan>
                        </text>
        </g>
    </g>
</svg>
