<svg xmlns="http://www.w3.org/2000/svg" width="48" height="48" viewBox="0 0 48 48">
    <g fill="none" fill-rule="evenodd">
        <g>
            <g>
                <g>
                    <path d="M0 0H48V48H0z" opacity=".5" transform="translate(-753.000000, -819.000000) translate(453.000000, 815.000000) translate(300.000000, 4.000000)"/>
                    <g>
                        <path d="M4 4H28V28H4z" transform="translate(-753.000000, -819.000000) translate(453.000000, 815.000000) translate(300.000000, 4.000000) translate(8.000000, 8.000000)"/>
                        <path fill="#222" d="M16 5.25c.414 0 .75.336.75.75v9.5h9.5c.414 0 .75.336.75.75s-.336.75-.75.75h-9.501l.001 9.5c0 .414-.336.75-.75.75s-.75-.336-.75-.75l-.001-9.5H5.75c-.414 0-.75-.336-.75-.75s.336-.75.75-.75h9.5V6c0-.414.336-.75.75-.75z" transform="translate(-753.000000, -819.000000) translate(453.000000, 815.000000) translate(300.000000, 4.000000) translate(8.000000, 8.000000) translate(16.000000, 16.250000) rotate(-315.000000) translate(-16.000000, -16.250000)"/>
                    </g>
                </g>
            </g>
        </g>
    </g>
</svg>
