<svg xmlns="http://www.w3.org/2000/svg" width="36" height="36" viewBox="0 0 36 36">
    <g fill="none" fill-rule="evenodd">
        <g>
            <g>
                <g>
                    <path d="M0 0H36V36H0z" transform="translate(-102.000000, -636.000000) translate(24.000000, 624.000000) translate(78.000000, 12.000000)"/>
                    <path fill="#3F1D1D" d="M16.082 25.576s1.264.134 1.918.134c6.075 0 11-3.964 11-8.855C29 11.965 24.075 8 18 8S7 11.965 7 16.855c0 3.032 1.892 5.707 4.777 7.303 0 0-.39 2.119-2.57 4.148 0 0-.216.387.43.242.648-.144 4.67-1.593 6.445-2.972" transform="translate(-102.000000, -636.000000) translate(24.000000, 624.000000) translate(78.000000, 12.000000)"/>
                </g>
            </g>
        </g>
    </g>
</svg>
